<mxfile host="Electron" agent="Mozilla/5.0 (Windows NT 10.0; Win64; x64) AppleWebKit/537.36 (KHTML, like Gecko) draw.io/24.7.5 Chrome/126.0.6478.183 Electron/31.3.0 Safari/537.36" version="24.7.5">
  <diagram name="Page-1" id="DNKV6R413RvNOhAki1Yu">
    <mxGraphModel dx="1500" dy="887" grid="1" gridSize="10" guides="1" tooltips="1" connect="1" arrows="1" fold="1" page="1" pageScale="1" pageWidth="1600" pageHeight="900" math="0" shadow="0">
      <root>
        <mxCell id="0" />
        <mxCell id="1" parent="0" />
        <mxCell id="HA1Z-ZeuSeUNC9l5udy9-1" value="Customer" style="rounded=0;whiteSpace=wrap;html=1;" parent="1" vertex="1">
          <mxGeometry x="160" y="170" width="150" height="40" as="geometry" />
        </mxCell>
        <mxCell id="HA1Z-ZeuSeUNC9l5udy9-2" value="&lt;u&gt;Customer_ID&lt;/u&gt;" style="ellipse;whiteSpace=wrap;html=1;" parent="1" vertex="1">
          <mxGeometry x="60" y="90" width="100" height="40" as="geometry" />
        </mxCell>
        <mxCell id="HA1Z-ZeuSeUNC9l5udy9-3" value="Name" style="ellipse;whiteSpace=wrap;html=1;" parent="1" vertex="1">
          <mxGeometry x="185" y="90" width="100" height="40" as="geometry" />
        </mxCell>
        <mxCell id="HA1Z-ZeuSeUNC9l5udy9-4" value="Segment" style="ellipse;whiteSpace=wrap;html=1;" parent="1" vertex="1">
          <mxGeometry x="290" y="70" width="100" height="40" as="geometry" />
        </mxCell>
        <mxCell id="HA1Z-ZeuSeUNC9l5udy9-5" value="Country" style="ellipse;whiteSpace=wrap;html=1;" parent="1" vertex="1">
          <mxGeometry x="20" y="140" width="100" height="40" as="geometry" />
        </mxCell>
        <mxCell id="HA1Z-ZeuSeUNC9l5udy9-6" value="City" style="ellipse;whiteSpace=wrap;html=1;" parent="1" vertex="1">
          <mxGeometry x="20" y="190" width="100" height="40" as="geometry" />
        </mxCell>
        <mxCell id="HA1Z-ZeuSeUNC9l5udy9-7" value="State" style="ellipse;whiteSpace=wrap;html=1;" parent="1" vertex="1">
          <mxGeometry x="20" y="240" width="100" height="40" as="geometry" />
        </mxCell>
        <mxCell id="HA1Z-ZeuSeUNC9l5udy9-8" value="Street" style="ellipse;whiteSpace=wrap;html=1;" parent="1" vertex="1">
          <mxGeometry x="70" y="280" width="100" height="40" as="geometry" />
        </mxCell>
        <mxCell id="HA1Z-ZeuSeUNC9l5udy9-9" value="Fname" style="ellipse;whiteSpace=wrap;html=1;" parent="1" vertex="1">
          <mxGeometry x="110" y="20" width="100" height="40" as="geometry" />
        </mxCell>
        <mxCell id="HA1Z-ZeuSeUNC9l5udy9-10" value="Lname" style="ellipse;whiteSpace=wrap;html=1;" parent="1" vertex="1">
          <mxGeometry x="260" y="20" width="100" height="40" as="geometry" />
        </mxCell>
        <mxCell id="HA1Z-ZeuSeUNC9l5udy9-12" value="" style="endArrow=none;html=1;rounded=0;entryX=0.25;entryY=1;entryDx=0;entryDy=0;exitX=1;exitY=0;exitDx=0;exitDy=0;" parent="1" source="HA1Z-ZeuSeUNC9l5udy9-8" target="HA1Z-ZeuSeUNC9l5udy9-1" edge="1">
          <mxGeometry width="50" height="50" relative="1" as="geometry">
            <mxPoint x="150" y="290" as="sourcePoint" />
            <mxPoint x="200" y="240" as="targetPoint" />
          </mxGeometry>
        </mxCell>
        <mxCell id="HA1Z-ZeuSeUNC9l5udy9-13" value="" style="endArrow=none;html=1;rounded=0;entryX=0;entryY=1;entryDx=0;entryDy=0;exitX=1;exitY=0.5;exitDx=0;exitDy=0;" parent="1" source="HA1Z-ZeuSeUNC9l5udy9-7" target="HA1Z-ZeuSeUNC9l5udy9-1" edge="1">
          <mxGeometry width="50" height="50" relative="1" as="geometry">
            <mxPoint x="165" y="296" as="sourcePoint" />
            <mxPoint x="208" y="220" as="targetPoint" />
          </mxGeometry>
        </mxCell>
        <mxCell id="HA1Z-ZeuSeUNC9l5udy9-14" value="" style="endArrow=none;html=1;rounded=0;exitX=0.952;exitY=0.722;exitDx=0;exitDy=0;entryX=0;entryY=0.5;entryDx=0;entryDy=0;entryPerimeter=0;exitPerimeter=0;" parent="1" source="HA1Z-ZeuSeUNC9l5udy9-6" target="HA1Z-ZeuSeUNC9l5udy9-1" edge="1">
          <mxGeometry width="50" height="50" relative="1" as="geometry">
            <mxPoint x="98.5" y="248" as="sourcePoint" />
            <mxPoint x="150" y="190" as="targetPoint" />
          </mxGeometry>
        </mxCell>
        <mxCell id="HA1Z-ZeuSeUNC9l5udy9-15" value="" style="endArrow=none;html=1;rounded=0;entryX=0;entryY=0.25;entryDx=0;entryDy=0;exitX=1;exitY=0.5;exitDx=0;exitDy=0;" parent="1" source="HA1Z-ZeuSeUNC9l5udy9-5" target="HA1Z-ZeuSeUNC9l5udy9-1" edge="1">
          <mxGeometry width="50" height="50" relative="1" as="geometry">
            <mxPoint x="185" y="316" as="sourcePoint" />
            <mxPoint x="228" y="240" as="targetPoint" />
          </mxGeometry>
        </mxCell>
        <mxCell id="HA1Z-ZeuSeUNC9l5udy9-16" value="" style="endArrow=none;html=1;rounded=0;entryX=1;entryY=1;entryDx=0;entryDy=0;exitX=0.062;exitY=-0.049;exitDx=0;exitDy=0;exitPerimeter=0;" parent="1" source="HA1Z-ZeuSeUNC9l5udy9-1" target="HA1Z-ZeuSeUNC9l5udy9-2" edge="1">
          <mxGeometry width="50" height="50" relative="1" as="geometry">
            <mxPoint x="195" y="326" as="sourcePoint" />
            <mxPoint x="238" y="250" as="targetPoint" />
          </mxGeometry>
        </mxCell>
        <mxCell id="HA1Z-ZeuSeUNC9l5udy9-17" value="" style="endArrow=none;html=1;rounded=0;entryX=0.5;entryY=1;entryDx=0;entryDy=0;" parent="1" source="HA1Z-ZeuSeUNC9l5udy9-1" target="HA1Z-ZeuSeUNC9l5udy9-3" edge="1">
          <mxGeometry width="50" height="50" relative="1" as="geometry">
            <mxPoint x="205" y="336" as="sourcePoint" />
            <mxPoint x="248" y="260" as="targetPoint" />
          </mxGeometry>
        </mxCell>
        <mxCell id="HA1Z-ZeuSeUNC9l5udy9-18" value="" style="endArrow=none;html=1;rounded=0;entryX=0.231;entryY=0.901;entryDx=0;entryDy=0;exitX=1;exitY=0;exitDx=0;exitDy=0;entryPerimeter=0;" parent="1" source="HA1Z-ZeuSeUNC9l5udy9-3" target="HA1Z-ZeuSeUNC9l5udy9-10" edge="1">
          <mxGeometry width="50" height="50" relative="1" as="geometry">
            <mxPoint x="215" y="346" as="sourcePoint" />
            <mxPoint x="258" y="270" as="targetPoint" />
          </mxGeometry>
        </mxCell>
        <mxCell id="HA1Z-ZeuSeUNC9l5udy9-19" value="" style="endArrow=none;html=1;rounded=0;exitX=0;exitY=0;exitDx=0;exitDy=0;entryX=0.677;entryY=0.925;entryDx=0;entryDy=0;entryPerimeter=0;" parent="1" source="HA1Z-ZeuSeUNC9l5udy9-3" target="HA1Z-ZeuSeUNC9l5udy9-9" edge="1">
          <mxGeometry width="50" height="50" relative="1" as="geometry">
            <mxPoint x="225" y="356" as="sourcePoint" />
            <mxPoint x="180" y="70" as="targetPoint" />
          </mxGeometry>
        </mxCell>
        <mxCell id="HA1Z-ZeuSeUNC9l5udy9-20" value="" style="endArrow=none;html=1;rounded=0;entryX=0.2;entryY=1;entryDx=0;entryDy=0;exitX=0.75;exitY=0;exitDx=0;exitDy=0;entryPerimeter=0;" parent="1" source="HA1Z-ZeuSeUNC9l5udy9-1" target="HA1Z-ZeuSeUNC9l5udy9-4" edge="1">
          <mxGeometry width="50" height="50" relative="1" as="geometry">
            <mxPoint x="235" y="366" as="sourcePoint" />
            <mxPoint x="278" y="290" as="targetPoint" />
          </mxGeometry>
        </mxCell>
        <mxCell id="HA1Z-ZeuSeUNC9l5udy9-22" value="Category" style="rounded=0;whiteSpace=wrap;html=1;" parent="1" vertex="1">
          <mxGeometry x="99.55" y="570" width="150" height="40" as="geometry" />
        </mxCell>
        <mxCell id="HA1Z-ZeuSeUNC9l5udy9-23" value="&lt;u&gt;Category_ID&lt;/u&gt;" style="ellipse;whiteSpace=wrap;html=1;" parent="1" vertex="1">
          <mxGeometry x="20.000000000000014" y="630" width="100" height="40" as="geometry" />
        </mxCell>
        <mxCell id="HA1Z-ZeuSeUNC9l5udy9-24" value="Category_Name" style="ellipse;whiteSpace=wrap;html=1;" parent="1" vertex="1">
          <mxGeometry x="19.999999999999996" y="520" width="100" height="40" as="geometry" />
        </mxCell>
        <mxCell id="HA1Z-ZeuSeUNC9l5udy9-25" value="" style="endArrow=none;html=1;rounded=0;entryX=0.172;entryY=-0.029;entryDx=0;entryDy=0;exitX=1;exitY=1;exitDx=0;exitDy=0;entryPerimeter=0;" parent="1" source="HA1Z-ZeuSeUNC9l5udy9-24" target="HA1Z-ZeuSeUNC9l5udy9-22" edge="1">
          <mxGeometry width="50" height="50" relative="1" as="geometry">
            <mxPoint x="99.55" y="640" as="sourcePoint" />
            <mxPoint x="337.55" y="690" as="targetPoint" />
          </mxGeometry>
        </mxCell>
        <mxCell id="HA1Z-ZeuSeUNC9l5udy9-26" value="" style="endArrow=none;html=1;rounded=0;entryX=1;entryY=0;entryDx=0;entryDy=0;exitX=0.18;exitY=1.079;exitDx=0;exitDy=0;exitPerimeter=0;" parent="1" source="HA1Z-ZeuSeUNC9l5udy9-22" target="HA1Z-ZeuSeUNC9l5udy9-23" edge="1">
          <mxGeometry width="50" height="50" relative="1" as="geometry">
            <mxPoint x="304.55" y="776" as="sourcePoint" />
            <mxPoint x="347.55" y="700" as="targetPoint" />
          </mxGeometry>
        </mxCell>
        <mxCell id="HA1Z-ZeuSeUNC9l5udy9-27" value="Product" style="rounded=0;whiteSpace=wrap;html=1;" parent="1" vertex="1">
          <mxGeometry x="560" y="570" width="140" height="40" as="geometry" />
        </mxCell>
        <mxCell id="HA1Z-ZeuSeUNC9l5udy9-28" value="&lt;u&gt;Product_Card_ID&lt;/u&gt;" style="ellipse;whiteSpace=wrap;html=1;" parent="1" vertex="1">
          <mxGeometry x="710" y="660" width="130" height="40" as="geometry" />
        </mxCell>
        <mxCell id="HA1Z-ZeuSeUNC9l5udy9-29" value="Name" style="ellipse;whiteSpace=wrap;html=1;" parent="1" vertex="1">
          <mxGeometry x="614.57" y="710" width="100" height="40" as="geometry" />
        </mxCell>
        <mxCell id="HA1Z-ZeuSeUNC9l5udy9-31" value="Price" style="ellipse;whiteSpace=wrap;html=1;" parent="1" vertex="1">
          <mxGeometry x="400" y="670" width="100" height="40" as="geometry" />
        </mxCell>
        <mxCell id="HA1Z-ZeuSeUNC9l5udy9-32" value="Status" style="ellipse;whiteSpace=wrap;html=1;" parent="1" vertex="1">
          <mxGeometry x="489.57" y="710" width="100" height="40" as="geometry" />
        </mxCell>
        <mxCell id="HA1Z-ZeuSeUNC9l5udy9-33" value="" style="endArrow=none;html=1;rounded=0;exitX=0.703;exitY=0.028;exitDx=0;exitDy=0;entryX=0.2;entryY=0.987;entryDx=0;entryDy=0;entryPerimeter=0;exitPerimeter=0;" parent="1" source="HA1Z-ZeuSeUNC9l5udy9-32" target="HA1Z-ZeuSeUNC9l5udy9-27" edge="1">
          <mxGeometry width="50" height="50" relative="1" as="geometry">
            <mxPoint x="488.5" y="638" as="sourcePoint" />
            <mxPoint x="540" y="630" as="targetPoint" />
          </mxGeometry>
        </mxCell>
        <mxCell id="HA1Z-ZeuSeUNC9l5udy9-34" value="" style="endArrow=none;html=1;rounded=0;entryX=0;entryY=1;entryDx=0;entryDy=0;exitX=1;exitY=0;exitDx=0;exitDy=0;" parent="1" source="HA1Z-ZeuSeUNC9l5udy9-31" target="HA1Z-ZeuSeUNC9l5udy9-27" edge="1">
          <mxGeometry width="50" height="50" relative="1" as="geometry">
            <mxPoint x="470" y="620" as="sourcePoint" />
            <mxPoint x="618" y="630" as="targetPoint" />
          </mxGeometry>
        </mxCell>
        <mxCell id="HA1Z-ZeuSeUNC9l5udy9-35" value="" style="endArrow=none;html=1;rounded=0;entryX=0;entryY=0;entryDx=0;entryDy=0;exitX=1;exitY=0.75;exitDx=0;exitDy=0;" parent="1" source="HA1Z-ZeuSeUNC9l5udy9-27" target="HA1Z-ZeuSeUNC9l5udy9-28" edge="1">
          <mxGeometry width="50" height="50" relative="1" as="geometry">
            <mxPoint x="510" y="570" as="sourcePoint" />
            <mxPoint x="759.1746465545325" y="615.8159620287838" as="targetPoint" />
          </mxGeometry>
        </mxCell>
        <mxCell id="HA1Z-ZeuSeUNC9l5udy9-36" value="" style="endArrow=none;html=1;rounded=0;entryX=0.5;entryY=0;entryDx=0;entryDy=0;exitX=0.611;exitY=0.963;exitDx=0;exitDy=0;exitPerimeter=0;" parent="1" source="HA1Z-ZeuSeUNC9l5udy9-27" target="HA1Z-ZeuSeUNC9l5udy9-29" edge="1">
          <mxGeometry width="50" height="50" relative="1" as="geometry">
            <mxPoint x="610" y="600" as="sourcePoint" />
            <mxPoint x="610" y="660" as="targetPoint" />
          </mxGeometry>
        </mxCell>
        <mxCell id="HA1Z-ZeuSeUNC9l5udy9-38" value="Department" style="rounded=0;whiteSpace=wrap;html=1;" parent="1" vertex="1">
          <mxGeometry x="172.5" y="370" width="112.5" height="40" as="geometry" />
        </mxCell>
        <mxCell id="HA1Z-ZeuSeUNC9l5udy9-39" value="&lt;u&gt;Dept_ID&lt;/u&gt;" style="ellipse;whiteSpace=wrap;html=1;" parent="1" vertex="1">
          <mxGeometry x="35" y="370" width="120" height="40" as="geometry" />
        </mxCell>
        <mxCell id="HA1Z-ZeuSeUNC9l5udy9-40" value="Dept_Name" style="ellipse;whiteSpace=wrap;html=1;" parent="1" vertex="1">
          <mxGeometry x="70" y="440" width="100" height="40" as="geometry" />
        </mxCell>
        <mxCell id="HA1Z-ZeuSeUNC9l5udy9-41" value="" style="endArrow=none;html=1;rounded=0;entryX=0.143;entryY=1;entryDx=0;entryDy=0;entryPerimeter=0;exitX=0.765;exitY=0.079;exitDx=0;exitDy=0;exitPerimeter=0;" parent="1" source="HA1Z-ZeuSeUNC9l5udy9-40" target="HA1Z-ZeuSeUNC9l5udy9-38" edge="1">
          <mxGeometry width="50" height="50" relative="1" as="geometry">
            <mxPoint x="173" y="450" as="sourcePoint" />
            <mxPoint x="240.5" y="440" as="targetPoint" />
          </mxGeometry>
        </mxCell>
        <mxCell id="HA1Z-ZeuSeUNC9l5udy9-42" value="" style="endArrow=none;html=1;rounded=0;entryX=1;entryY=0.5;entryDx=0;entryDy=0;exitX=0;exitY=0.5;exitDx=0;exitDy=0;" parent="1" source="HA1Z-ZeuSeUNC9l5udy9-38" target="HA1Z-ZeuSeUNC9l5udy9-39" edge="1">
          <mxGeometry width="50" height="50" relative="1" as="geometry">
            <mxPoint x="172.5" y="368" as="sourcePoint" />
            <mxPoint x="250.5" y="450" as="targetPoint" />
          </mxGeometry>
        </mxCell>
        <mxCell id="HA1Z-ZeuSeUNC9l5udy9-43" value="Order" style="rounded=0;whiteSpace=wrap;html=1;" parent="1" vertex="1">
          <mxGeometry x="1050" y="170" width="150" height="40" as="geometry" />
        </mxCell>
        <mxCell id="HA1Z-ZeuSeUNC9l5udy9-44" value="&lt;u&gt;Order_ID&lt;/u&gt;" style="ellipse;whiteSpace=wrap;html=1;" parent="1" vertex="1">
          <mxGeometry x="940" y="10" width="100" height="40" as="geometry" />
        </mxCell>
        <mxCell id="HA1Z-ZeuSeUNC9l5udy9-45" value="Order_Date" style="ellipse;whiteSpace=wrap;html=1;" parent="1" vertex="1">
          <mxGeometry x="1110" y="90" width="90" height="40" as="geometry" />
        </mxCell>
        <mxCell id="HA1Z-ZeuSeUNC9l5udy9-46" value="Order_State" style="ellipse;whiteSpace=wrap;html=1;" parent="1" vertex="1">
          <mxGeometry x="1200" y="30" width="100" height="40" as="geometry" />
        </mxCell>
        <mxCell id="HA1Z-ZeuSeUNC9l5udy9-47" value="Order_Country" style="ellipse;whiteSpace=wrap;html=1;" parent="1" vertex="1">
          <mxGeometry x="1332.5" y="70" width="120" height="40" as="geometry" />
        </mxCell>
        <mxCell id="HA1Z-ZeuSeUNC9l5udy9-48" value="Delivery_Status" style="ellipse;whiteSpace=wrap;html=1;" parent="1" vertex="1">
          <mxGeometry x="1350" y="220" width="120" height="40" as="geometry" />
        </mxCell>
        <mxCell id="HA1Z-ZeuSeUNC9l5udy9-49" value="Shipping_Mode" style="ellipse;whiteSpace=wrap;html=1;" parent="1" vertex="1">
          <mxGeometry x="1370" y="270" width="130" height="40" as="geometry" />
        </mxCell>
        <mxCell id="HA1Z-ZeuSeUNC9l5udy9-50" value="Order_Region" style="ellipse;whiteSpace=wrap;html=1;" parent="1" vertex="1">
          <mxGeometry x="1332.5" y="120" width="120" height="40" as="geometry" />
        </mxCell>
        <mxCell id="HA1Z-ZeuSeUNC9l5udy9-51" value="Order_City" style="ellipse;whiteSpace=wrap;html=1;" parent="1" vertex="1">
          <mxGeometry x="1310" y="20" width="110" height="40" as="geometry" />
        </mxCell>
        <mxCell id="HA1Z-ZeuSeUNC9l5udy9-52" value="" style="endArrow=none;html=1;rounded=0;entryX=1.006;entryY=0.378;entryDx=0;entryDy=0;exitX=0;exitY=0.5;exitDx=0;exitDy=0;entryPerimeter=0;" parent="1" source="HA1Z-ZeuSeUNC9l5udy9-50" target="HA1Z-ZeuSeUNC9l5udy9-43" edge="1">
          <mxGeometry width="50" height="50" relative="1" as="geometry">
            <mxPoint x="1430" y="220" as="sourcePoint" />
            <mxPoint x="1090" y="240" as="targetPoint" />
          </mxGeometry>
        </mxCell>
        <mxCell id="HA1Z-ZeuSeUNC9l5udy9-53" value="" style="endArrow=none;html=1;rounded=0;entryX=1;entryY=1;entryDx=0;entryDy=0;exitX=-0.006;exitY=0.333;exitDx=0;exitDy=0;exitPerimeter=0;" parent="1" source="HA1Z-ZeuSeUNC9l5udy9-49" target="HA1Z-ZeuSeUNC9l5udy9-43" edge="1">
          <mxGeometry width="50" height="50" relative="1" as="geometry">
            <mxPoint x="1055" y="296" as="sourcePoint" />
            <mxPoint x="1098" y="220" as="targetPoint" />
          </mxGeometry>
        </mxCell>
        <mxCell id="HA1Z-ZeuSeUNC9l5udy9-54" value="" style="endArrow=none;html=1;rounded=0;exitX=0;exitY=0.5;exitDx=0;exitDy=0;entryX=1;entryY=0.75;entryDx=0;entryDy=0;" parent="1" source="HA1Z-ZeuSeUNC9l5udy9-48" target="HA1Z-ZeuSeUNC9l5udy9-43" edge="1">
          <mxGeometry width="50" height="50" relative="1" as="geometry">
            <mxPoint x="988.5" y="248" as="sourcePoint" />
            <mxPoint x="1040" y="190" as="targetPoint" />
          </mxGeometry>
        </mxCell>
        <mxCell id="HA1Z-ZeuSeUNC9l5udy9-55" value="" style="endArrow=none;html=1;rounded=0;entryX=1;entryY=0;entryDx=0;entryDy=0;exitX=0.015;exitY=0.633;exitDx=0;exitDy=0;exitPerimeter=0;" parent="1" source="HA1Z-ZeuSeUNC9l5udy9-47" target="HA1Z-ZeuSeUNC9l5udy9-43" edge="1">
          <mxGeometry width="50" height="50" relative="1" as="geometry">
            <mxPoint x="1340" y="170" as="sourcePoint" />
            <mxPoint x="1118" y="240" as="targetPoint" />
          </mxGeometry>
        </mxCell>
        <mxCell id="HA1Z-ZeuSeUNC9l5udy9-56" value="" style="endArrow=none;html=1;rounded=0;entryX=0.767;entryY=0.939;entryDx=0;entryDy=0;entryPerimeter=0;" parent="1" target="HA1Z-ZeuSeUNC9l5udy9-44" edge="1">
          <mxGeometry width="50" height="50" relative="1" as="geometry">
            <mxPoint x="1080" y="170" as="sourcePoint" />
            <mxPoint x="1128" y="250" as="targetPoint" />
          </mxGeometry>
        </mxCell>
        <mxCell id="HA1Z-ZeuSeUNC9l5udy9-57" value="" style="endArrow=none;html=1;rounded=0;entryX=0.5;entryY=1;entryDx=0;entryDy=0;" parent="1" target="HA1Z-ZeuSeUNC9l5udy9-45" edge="1">
          <mxGeometry width="50" height="50" relative="1" as="geometry">
            <mxPoint x="1153" y="169" as="sourcePoint" />
            <mxPoint x="1138" y="260" as="targetPoint" />
          </mxGeometry>
        </mxCell>
        <mxCell id="HA1Z-ZeuSeUNC9l5udy9-58" value="" style="endArrow=none;html=1;rounded=0;exitX=0.806;exitY=0.017;exitDx=0;exitDy=0;exitPerimeter=0;entryX=0.375;entryY=1.004;entryDx=0;entryDy=0;entryPerimeter=0;" parent="1" source="HA1Z-ZeuSeUNC9l5udy9-43" target="HA1Z-ZeuSeUNC9l5udy9-46" edge="1">
          <mxGeometry width="50" height="50" relative="1" as="geometry">
            <mxPoint x="1125" y="366" as="sourcePoint" />
            <mxPoint x="1250" y="90" as="targetPoint" />
          </mxGeometry>
        </mxCell>
        <mxCell id="HA1Z-ZeuSeUNC9l5udy9-59" value="" style="endArrow=none;html=1;rounded=0;entryX=0;entryY=1;entryDx=0;entryDy=0;" parent="1" target="HA1Z-ZeuSeUNC9l5udy9-51" edge="1">
          <mxGeometry width="50" height="50" relative="1" as="geometry">
            <mxPoint x="1190" y="170" as="sourcePoint" />
            <mxPoint x="1178" y="300" as="targetPoint" />
          </mxGeometry>
        </mxCell>
        <mxCell id="HA1Z-ZeuSeUNC9l5udy9-60" value="Days for shipping (real)" style="ellipse;whiteSpace=wrap;html=1;" parent="1" vertex="1">
          <mxGeometry x="1220" y="360" width="170" height="40" as="geometry" />
        </mxCell>
        <mxCell id="HA1Z-ZeuSeUNC9l5udy9-61" value="Days for shipment (scheduled)" style="ellipse;whiteSpace=wrap;html=1;" parent="1" vertex="1">
          <mxGeometry x="1370" y="330" width="195" height="40" as="geometry" />
        </mxCell>
        <mxCell id="HA1Z-ZeuSeUNC9l5udy9-62" value="Late_delivery_risk" style="ellipse;whiteSpace=wrap;html=1;" parent="1" vertex="1">
          <mxGeometry x="1250" y="310" width="130" height="40" as="geometry" />
        </mxCell>
        <mxCell id="HA1Z-ZeuSeUNC9l5udy9-63" value="Order_Status" style="ellipse;whiteSpace=wrap;html=1;" parent="1" vertex="1">
          <mxGeometry x="1040" y="40" width="120" height="40" as="geometry" />
        </mxCell>
        <mxCell id="HA1Z-ZeuSeUNC9l5udy9-64" value="" style="endArrow=none;html=1;rounded=0;entryX=0.5;entryY=1;entryDx=0;entryDy=0;exitX=0.388;exitY=-0.047;exitDx=0;exitDy=0;exitPerimeter=0;" parent="1" source="HA1Z-ZeuSeUNC9l5udy9-43" target="HA1Z-ZeuSeUNC9l5udy9-63" edge="1">
          <mxGeometry width="50" height="50" relative="1" as="geometry">
            <mxPoint x="1136" y="180" as="sourcePoint" />
            <mxPoint x="1140" y="130" as="targetPoint" />
          </mxGeometry>
        </mxCell>
        <mxCell id="HA1Z-ZeuSeUNC9l5udy9-65" value="" style="endArrow=none;html=1;rounded=0;entryX=0.911;entryY=1.04;entryDx=0;entryDy=0;exitX=0.223;exitY=0.017;exitDx=0;exitDy=0;exitPerimeter=0;entryPerimeter=0;" parent="1" source="HA1Z-ZeuSeUNC9l5udy9-61" target="HA1Z-ZeuSeUNC9l5udy9-43" edge="1">
          <mxGeometry width="50" height="50" relative="1" as="geometry">
            <mxPoint x="1436" y="287" as="sourcePoint" />
            <mxPoint x="1191" y="220" as="targetPoint" />
          </mxGeometry>
        </mxCell>
        <mxCell id="HA1Z-ZeuSeUNC9l5udy9-66" value="" style="endArrow=none;html=1;rounded=0;entryX=0.653;entryY=0.984;entryDx=0;entryDy=0;entryPerimeter=0;exitX=0;exitY=0;exitDx=0;exitDy=0;" parent="1" source="HA1Z-ZeuSeUNC9l5udy9-60" target="HA1Z-ZeuSeUNC9l5udy9-43" edge="1">
          <mxGeometry width="50" height="50" relative="1" as="geometry">
            <mxPoint x="1446" y="297" as="sourcePoint" />
            <mxPoint x="1201" y="230" as="targetPoint" />
          </mxGeometry>
        </mxCell>
        <mxCell id="HA1Z-ZeuSeUNC9l5udy9-67" value="" style="endArrow=none;html=1;rounded=0;entryX=0.75;entryY=1;entryDx=0;entryDy=0;exitX=0.278;exitY=0.053;exitDx=0;exitDy=0;exitPerimeter=0;" parent="1" source="HA1Z-ZeuSeUNC9l5udy9-62" target="HA1Z-ZeuSeUNC9l5udy9-43" edge="1">
          <mxGeometry width="50" height="50" relative="1" as="geometry">
            <mxPoint x="1456" y="307" as="sourcePoint" />
            <mxPoint x="1211" y="240" as="targetPoint" />
          </mxGeometry>
        </mxCell>
        <mxCell id="HA1Z-ZeuSeUNC9l5udy9-68" value="Order Item" style="rounded=0;whiteSpace=wrap;html=1;" parent="1" vertex="1">
          <mxGeometry x="1050" y="570" width="150" height="40" as="geometry" />
        </mxCell>
        <mxCell id="HA1Z-ZeuSeUNC9l5udy9-69" value="&lt;u&gt;Order_Item_ID&lt;/u&gt;" style="ellipse;whiteSpace=wrap;html=1;" parent="1" vertex="1">
          <mxGeometry x="980" y="720" width="100" height="40" as="geometry" />
        </mxCell>
        <mxCell id="HA1Z-ZeuSeUNC9l5udy9-70" value="Order Item Quantity" style="ellipse;whiteSpace=wrap;html=1;" parent="1" vertex="1">
          <mxGeometry x="1080" y="750" width="120" height="40" as="geometry" />
        </mxCell>
        <mxCell id="HA1Z-ZeuSeUNC9l5udy9-71" value="Order Item Discount Rate" style="ellipse;whiteSpace=wrap;html=1;dashed=1;" parent="1" vertex="1">
          <mxGeometry x="1350" y="520" width="170" height="40" as="geometry" />
        </mxCell>
        <mxCell id="HA1Z-ZeuSeUNC9l5udy9-72" value="Sales" style="ellipse;whiteSpace=wrap;html=1;" parent="1" vertex="1">
          <mxGeometry x="1360" y="620" width="120" height="40" as="geometry" />
        </mxCell>
        <mxCell id="HA1Z-ZeuSeUNC9l5udy9-73" value="Benefit per order" style="ellipse;whiteSpace=wrap;html=1;" parent="1" vertex="1">
          <mxGeometry x="1360" y="570" width="120" height="40" as="geometry" />
        </mxCell>
        <mxCell id="HA1Z-ZeuSeUNC9l5udy9-74" value="Order Item Discount" style="ellipse;whiteSpace=wrap;html=1;" parent="1" vertex="1">
          <mxGeometry x="1350" y="475" width="140" height="40" as="geometry" />
        </mxCell>
        <mxCell id="HA1Z-ZeuSeUNC9l5udy9-75" value="" style="endArrow=none;html=1;rounded=0;entryX=1.006;entryY=0.378;entryDx=0;entryDy=0;exitX=0;exitY=0.5;exitDx=0;exitDy=0;entryPerimeter=0;" parent="1" source="HA1Z-ZeuSeUNC9l5udy9-73" target="HA1Z-ZeuSeUNC9l5udy9-68" edge="1">
          <mxGeometry width="50" height="50" relative="1" as="geometry">
            <mxPoint x="1430" y="620" as="sourcePoint" />
            <mxPoint x="1090" y="640" as="targetPoint" />
          </mxGeometry>
        </mxCell>
        <mxCell id="HA1Z-ZeuSeUNC9l5udy9-76" value="" style="endArrow=none;html=1;rounded=0;entryX=1;entryY=1;entryDx=0;entryDy=0;exitX=0;exitY=0.5;exitDx=0;exitDy=0;" parent="1" source="HA1Z-ZeuSeUNC9l5udy9-83" target="HA1Z-ZeuSeUNC9l5udy9-68" edge="1">
          <mxGeometry width="50" height="50" relative="1" as="geometry">
            <mxPoint x="1369" y="683" as="sourcePoint" />
            <mxPoint x="1098" y="620" as="targetPoint" />
          </mxGeometry>
        </mxCell>
        <mxCell id="HA1Z-ZeuSeUNC9l5udy9-77" value="" style="endArrow=none;html=1;rounded=0;exitX=0;exitY=0.5;exitDx=0;exitDy=0;entryX=1;entryY=0.75;entryDx=0;entryDy=0;" parent="1" source="HA1Z-ZeuSeUNC9l5udy9-72" target="HA1Z-ZeuSeUNC9l5udy9-68" edge="1">
          <mxGeometry width="50" height="50" relative="1" as="geometry">
            <mxPoint x="988.5" y="648" as="sourcePoint" />
            <mxPoint x="1040" y="590" as="targetPoint" />
          </mxGeometry>
        </mxCell>
        <mxCell id="HA1Z-ZeuSeUNC9l5udy9-78" value="" style="endArrow=none;html=1;rounded=0;entryX=1;entryY=0;entryDx=0;entryDy=0;exitX=0.015;exitY=0.633;exitDx=0;exitDy=0;exitPerimeter=0;" parent="1" source="HA1Z-ZeuSeUNC9l5udy9-71" target="HA1Z-ZeuSeUNC9l5udy9-68" edge="1">
          <mxGeometry width="50" height="50" relative="1" as="geometry">
            <mxPoint x="1340" y="570" as="sourcePoint" />
            <mxPoint x="1118" y="640" as="targetPoint" />
          </mxGeometry>
        </mxCell>
        <mxCell id="HA1Z-ZeuSeUNC9l5udy9-79" value="" style="endArrow=none;html=1;rounded=0;entryX=0;entryY=1;entryDx=0;entryDy=0;" parent="1" target="HA1Z-ZeuSeUNC9l5udy9-74" edge="1">
          <mxGeometry width="50" height="50" relative="1" as="geometry">
            <mxPoint x="1190" y="570" as="sourcePoint" />
            <mxPoint x="1178" y="700" as="targetPoint" />
          </mxGeometry>
        </mxCell>
        <mxCell id="HA1Z-ZeuSeUNC9l5udy9-80" value="Order Item Profit Ratio" style="ellipse;whiteSpace=wrap;html=1;dashed=1;" parent="1" vertex="1">
          <mxGeometry x="1160" y="710" width="140" height="40" as="geometry" />
        </mxCell>
        <mxCell id="HA1Z-ZeuSeUNC9l5udy9-81" value="" style="endArrow=none;html=1;rounded=0;entryX=0.911;entryY=1.04;entryDx=0;entryDy=0;exitX=0.239;exitY=0.022;exitDx=0;exitDy=0;exitPerimeter=0;entryPerimeter=0;" parent="1" source="HA1Z-ZeuSeUNC9l5udy9-84" target="HA1Z-ZeuSeUNC9l5udy9-68" edge="1">
          <mxGeometry width="50" height="50" relative="1" as="geometry">
            <mxPoint x="1424" y="737" as="sourcePoint" />
            <mxPoint x="1191" y="620" as="targetPoint" />
          </mxGeometry>
        </mxCell>
        <mxCell id="HA1Z-ZeuSeUNC9l5udy9-82" value="" style="endArrow=none;html=1;rounded=0;entryX=0.808;entryY=1.089;entryDx=0;entryDy=0;exitX=0.357;exitY=0;exitDx=0;exitDy=0;entryPerimeter=0;exitPerimeter=0;" parent="1" source="HA1Z-ZeuSeUNC9l5udy9-80" target="HA1Z-ZeuSeUNC9l5udy9-68" edge="1">
          <mxGeometry width="50" height="50" relative="1" as="geometry">
            <mxPoint x="1456" y="707" as="sourcePoint" />
            <mxPoint x="1211" y="640" as="targetPoint" />
          </mxGeometry>
        </mxCell>
        <mxCell id="HA1Z-ZeuSeUNC9l5udy9-83" value="Total Sales" style="ellipse;whiteSpace=wrap;html=1;dashed=1;" parent="1" vertex="1">
          <mxGeometry x="1370" y="670" width="120" height="40" as="geometry" />
        </mxCell>
        <mxCell id="HA1Z-ZeuSeUNC9l5udy9-84" value="Order Profit Per Order" style="ellipse;whiteSpace=wrap;html=1;dashed=1;" parent="1" vertex="1">
          <mxGeometry x="1315" y="740" width="155" height="40" as="geometry" />
        </mxCell>
        <mxCell id="HA1Z-ZeuSeUNC9l5udy9-85" value="" style="endArrow=none;html=1;rounded=0;entryX=0.5;entryY=1;entryDx=0;entryDy=0;" parent="1" source="HA1Z-ZeuSeUNC9l5udy9-70" target="HA1Z-ZeuSeUNC9l5udy9-68" edge="1">
          <mxGeometry width="50" height="50" relative="1" as="geometry">
            <mxPoint x="1220" y="720" as="sourcePoint" />
            <mxPoint x="1181" y="624" as="targetPoint" />
          </mxGeometry>
        </mxCell>
        <mxCell id="HA1Z-ZeuSeUNC9l5udy9-86" value="" style="endArrow=none;html=1;rounded=0;entryX=0.25;entryY=1;entryDx=0;entryDy=0;exitX=0.743;exitY=0.087;exitDx=0;exitDy=0;exitPerimeter=0;" parent="1" source="HA1Z-ZeuSeUNC9l5udy9-69" target="HA1Z-ZeuSeUNC9l5udy9-68" edge="1">
          <mxGeometry width="50" height="50" relative="1" as="geometry">
            <mxPoint x="1230" y="730" as="sourcePoint" />
            <mxPoint x="1191" y="634" as="targetPoint" />
          </mxGeometry>
        </mxCell>
        <mxCell id="HA1Z-ZeuSeUNC9l5udy9-87" value="Belong To" style="rhombus;whiteSpace=wrap;html=1;rotation=0;" parent="1" vertex="1">
          <mxGeometry x="360" y="560" width="90" height="60" as="geometry" />
        </mxCell>
        <mxCell id="HA1Z-ZeuSeUNC9l5udy9-88" value="" style="endArrow=none;html=1;rounded=0;entryX=1;entryY=0.5;entryDx=0;entryDy=0;exitX=0;exitY=0.5;exitDx=0;exitDy=0;" parent="1" source="HA1Z-ZeuSeUNC9l5udy9-87" target="HA1Z-ZeuSeUNC9l5udy9-22" edge="1">
          <mxGeometry relative="1" as="geometry">
            <mxPoint x="390" y="760" as="sourcePoint" />
            <mxPoint x="170" y="500" as="targetPoint" />
          </mxGeometry>
        </mxCell>
        <mxCell id="HA1Z-ZeuSeUNC9l5udy9-89" value="1" style="resizable=0;html=1;whiteSpace=wrap;align=right;verticalAlign=bottom;" parent="HA1Z-ZeuSeUNC9l5udy9-88" connectable="0" vertex="1">
          <mxGeometry x="1" relative="1" as="geometry">
            <mxPoint x="21" as="offset" />
          </mxGeometry>
        </mxCell>
        <mxCell id="HA1Z-ZeuSeUNC9l5udy9-172" value="1" style="resizable=0;html=1;whiteSpace=wrap;align=right;verticalAlign=bottom;" parent="HA1Z-ZeuSeUNC9l5udy9-88" connectable="0" vertex="1">
          <mxGeometry x="1" relative="1" as="geometry">
            <mxPoint x="61" y="-170" as="offset" />
          </mxGeometry>
        </mxCell>
        <mxCell id="HA1Z-ZeuSeUNC9l5udy9-92" value="Place" style="shape=rhombus;perimeter=rhombusPerimeter;whiteSpace=wrap;html=1;align=center;" parent="1" vertex="1">
          <mxGeometry x="640" y="160" width="120" height="60" as="geometry" />
        </mxCell>
        <mxCell id="HA1Z-ZeuSeUNC9l5udy9-95" value="" style="endArrow=none;html=1;rounded=0;entryX=1;entryY=0.5;entryDx=0;entryDy=0;exitX=0;exitY=0.5;exitDx=0;exitDy=0;" parent="1" source="HA1Z-ZeuSeUNC9l5udy9-92" target="HA1Z-ZeuSeUNC9l5udy9-1" edge="1">
          <mxGeometry relative="1" as="geometry">
            <mxPoint x="630" y="260" as="sourcePoint" />
            <mxPoint x="790" y="260" as="targetPoint" />
          </mxGeometry>
        </mxCell>
        <mxCell id="HA1Z-ZeuSeUNC9l5udy9-96" value="1" style="resizable=0;html=1;whiteSpace=wrap;align=right;verticalAlign=bottom;" parent="HA1Z-ZeuSeUNC9l5udy9-95" connectable="0" vertex="1">
          <mxGeometry x="1" relative="1" as="geometry">
            <mxPoint x="40" as="offset" />
          </mxGeometry>
        </mxCell>
        <mxCell id="HA1Z-ZeuSeUNC9l5udy9-97" value="Contain" style="shape=rhombus;perimeter=rhombusPerimeter;whiteSpace=wrap;html=1;align=center;" parent="1" vertex="1">
          <mxGeometry x="1060" y="380" width="120" height="60" as="geometry" />
        </mxCell>
        <mxCell id="HA1Z-ZeuSeUNC9l5udy9-102" value="Related To" style="shape=rhombus;perimeter=rhombusPerimeter;whiteSpace=wrap;html=1;align=center;" parent="1" vertex="1">
          <mxGeometry x="820" y="560" width="120" height="60" as="geometry" />
        </mxCell>
        <mxCell id="HA1Z-ZeuSeUNC9l5udy9-105" value="" style="endArrow=none;html=1;rounded=0;exitX=0;exitY=0.5;exitDx=0;exitDy=0;entryX=1;entryY=0.5;entryDx=0;entryDy=0;" parent="1" source="HA1Z-ZeuSeUNC9l5udy9-102" target="HA1Z-ZeuSeUNC9l5udy9-27" edge="1">
          <mxGeometry relative="1" as="geometry">
            <mxPoint x="875" y="639.64" as="sourcePoint" />
            <mxPoint x="710" y="580" as="targetPoint" />
          </mxGeometry>
        </mxCell>
        <mxCell id="HA1Z-ZeuSeUNC9l5udy9-106" value="1" style="resizable=0;html=1;whiteSpace=wrap;align=right;verticalAlign=bottom;" parent="HA1Z-ZeuSeUNC9l5udy9-105" connectable="0" vertex="1">
          <mxGeometry x="1" relative="1" as="geometry">
            <mxPoint x="20" y="-10" as="offset" />
          </mxGeometry>
        </mxCell>
        <mxCell id="HA1Z-ZeuSeUNC9l5udy9-186" value="1" style="resizable=0;html=1;whiteSpace=wrap;align=right;verticalAlign=bottom;" parent="HA1Z-ZeuSeUNC9l5udy9-105" connectable="0" vertex="1">
          <mxGeometry x="1" relative="1" as="geometry">
            <mxPoint x="20" y="-230" as="offset" />
          </mxGeometry>
        </mxCell>
        <mxCell id="HA1Z-ZeuSeUNC9l5udy9-107" value="Market" style="rounded=0;whiteSpace=wrap;html=1;" parent="1" vertex="1">
          <mxGeometry x="464.57" y="275" width="150" height="40" as="geometry" />
        </mxCell>
        <mxCell id="HA1Z-ZeuSeUNC9l5udy9-108" value="&lt;u&gt;Market_ID&lt;/u&gt;" style="ellipse;whiteSpace=wrap;html=1;" parent="1" vertex="1">
          <mxGeometry x="299.57" y="275" width="120" height="40" as="geometry" />
        </mxCell>
        <mxCell id="HA1Z-ZeuSeUNC9l5udy9-111" value="" style="endArrow=none;html=1;rounded=0;entryX=0.955;entryY=0.687;entryDx=0;entryDy=0;entryPerimeter=0;exitX=0;exitY=0.5;exitDx=0;exitDy=0;" parent="1" source="HA1Z-ZeuSeUNC9l5udy9-107" target="HA1Z-ZeuSeUNC9l5udy9-108" edge="1">
          <mxGeometry width="50" height="50" relative="1" as="geometry">
            <mxPoint x="464.57" y="273" as="sourcePoint" />
            <mxPoint x="542.57" y="355" as="targetPoint" />
          </mxGeometry>
        </mxCell>
        <mxCell id="HA1Z-ZeuSeUNC9l5udy9-114" value="Market" style="ellipse;whiteSpace=wrap;html=1;" parent="1" vertex="1">
          <mxGeometry x="364.57" y="205" width="100" height="40" as="geometry" />
        </mxCell>
        <mxCell id="HA1Z-ZeuSeUNC9l5udy9-115" value="" style="endArrow=none;html=1;rounded=0;entryX=1;entryY=1;entryDx=0;entryDy=0;exitX=0.25;exitY=0;exitDx=0;exitDy=0;" parent="1" source="HA1Z-ZeuSeUNC9l5udy9-107" target="HA1Z-ZeuSeUNC9l5udy9-114" edge="1">
          <mxGeometry width="50" height="50" relative="1" as="geometry">
            <mxPoint x="478.57" y="365" as="sourcePoint" />
            <mxPoint x="498.57" y="326" as="targetPoint" />
          </mxGeometry>
        </mxCell>
        <mxCell id="HA1Z-ZeuSeUNC9l5udy9-116" value="Delivered&amp;nbsp;" style="shape=rhombus;perimeter=rhombusPerimeter;whiteSpace=wrap;html=1;align=center;rotation=-10;" parent="1" vertex="1">
          <mxGeometry x="750" y="230" width="120" height="60" as="geometry" />
        </mxCell>
        <mxCell id="HA1Z-ZeuSeUNC9l5udy9-117" value="" style="endArrow=none;html=1;rounded=0;entryX=1;entryY=0.5;entryDx=0;entryDy=0;exitX=0;exitY=0.5;exitDx=0;exitDy=0;" parent="1" source="HA1Z-ZeuSeUNC9l5udy9-116" target="HA1Z-ZeuSeUNC9l5udy9-107" edge="1">
          <mxGeometry relative="1" as="geometry">
            <mxPoint x="620" y="350" as="sourcePoint" />
            <mxPoint x="833.46" y="270" as="targetPoint" />
          </mxGeometry>
        </mxCell>
        <mxCell id="HA1Z-ZeuSeUNC9l5udy9-118" value="1" style="resizable=0;html=1;whiteSpace=wrap;align=right;verticalAlign=bottom;" parent="HA1Z-ZeuSeUNC9l5udy9-117" connectable="0" vertex="1">
          <mxGeometry x="1" relative="1" as="geometry">
            <mxPoint x="15" y="-10" as="offset" />
          </mxGeometry>
        </mxCell>
        <mxCell id="HA1Z-ZeuSeUNC9l5udy9-126" value="Store" style="rounded=0;whiteSpace=wrap;html=1;" parent="1" vertex="1">
          <mxGeometry x="555" y="370" width="150" height="40" as="geometry" />
        </mxCell>
        <mxCell id="HA1Z-ZeuSeUNC9l5udy9-127" value="&lt;u&gt;ID&lt;/u&gt;" style="ellipse;whiteSpace=wrap;html=1;" parent="1" vertex="1">
          <mxGeometry x="450" y="440" width="120" height="40" as="geometry" />
        </mxCell>
        <mxCell id="HA1Z-ZeuSeUNC9l5udy9-128" value="Latitude" style="ellipse;whiteSpace=wrap;html=1;" parent="1" vertex="1">
          <mxGeometry x="584.9999999999999" y="465" width="100" height="40" as="geometry" />
        </mxCell>
        <mxCell id="HA1Z-ZeuSeUNC9l5udy9-129" value="Longitude" style="ellipse;whiteSpace=wrap;html=1;" parent="1" vertex="1">
          <mxGeometry x="700" y="455" width="100" height="40" as="geometry" />
        </mxCell>
        <mxCell id="HA1Z-ZeuSeUNC9l5udy9-134" value="" style="endArrow=none;html=1;rounded=0;exitX=1;exitY=0;exitDx=0;exitDy=0;entryX=0.089;entryY=0.999;entryDx=0;entryDy=0;entryPerimeter=0;" parent="1" source="HA1Z-ZeuSeUNC9l5udy9-127" edge="1" target="HA1Z-ZeuSeUNC9l5udy9-126">
          <mxGeometry width="50" height="50" relative="1" as="geometry">
            <mxPoint x="530" y="445" as="sourcePoint" />
            <mxPoint x="560" y="425" as="targetPoint" />
          </mxGeometry>
        </mxCell>
        <mxCell id="HA1Z-ZeuSeUNC9l5udy9-135" value="" style="endArrow=none;html=1;rounded=0;entryX=0.5;entryY=1;entryDx=0;entryDy=0;" parent="1" source="HA1Z-ZeuSeUNC9l5udy9-128" target="HA1Z-ZeuSeUNC9l5udy9-126" edge="1">
          <mxGeometry width="50" height="50" relative="1" as="geometry">
            <mxPoint x="535" y="463" as="sourcePoint" />
            <mxPoint x="630" y="430" as="targetPoint" />
          </mxGeometry>
        </mxCell>
        <mxCell id="HA1Z-ZeuSeUNC9l5udy9-136" value="" style="endArrow=none;html=1;rounded=0;entryX=0.824;entryY=1.011;entryDx=0;entryDy=0;exitX=0.263;exitY=0.017;exitDx=0;exitDy=0;exitPerimeter=0;entryPerimeter=0;" parent="1" source="HA1Z-ZeuSeUNC9l5udy9-129" target="HA1Z-ZeuSeUNC9l5udy9-126" edge="1">
          <mxGeometry width="50" height="50" relative="1" as="geometry">
            <mxPoint x="545" y="473" as="sourcePoint" />
            <mxPoint x="580" y="445" as="targetPoint" />
          </mxGeometry>
        </mxCell>
        <mxCell id="HA1Z-ZeuSeUNC9l5udy9-137" value="has" style="shape=rhombus;perimeter=rhombusPerimeter;whiteSpace=wrap;html=1;align=center;rotation=0;" parent="1" vertex="1">
          <mxGeometry x="372.29" y="360" width="95.43" height="60" as="geometry" />
        </mxCell>
        <mxCell id="HA1Z-ZeuSeUNC9l5udy9-139" value="" style="endArrow=none;html=1;rounded=0;exitX=1;exitY=0.5;exitDx=0;exitDy=0;entryX=0;entryY=0.5;entryDx=0;entryDy=0;" parent="1" source="HA1Z-ZeuSeUNC9l5udy9-137" target="HA1Z-ZeuSeUNC9l5udy9-126" edge="1">
          <mxGeometry relative="1" as="geometry">
            <mxPoint x="501.07" y="405" as="sourcePoint" />
            <mxPoint x="560" y="419" as="targetPoint" />
          </mxGeometry>
        </mxCell>
        <mxCell id="HA1Z-ZeuSeUNC9l5udy9-140" value="Placed from" style="shape=rhombus;perimeter=rhombusPerimeter;whiteSpace=wrap;html=1;align=center;rotation=-20;" parent="1" vertex="1">
          <mxGeometry x="830" y="275" width="120" height="60" as="geometry" />
        </mxCell>
        <mxCell id="HA1Z-ZeuSeUNC9l5udy9-144" value="" style="endArrow=none;html=1;rounded=0;entryX=0;entryY=0.5;entryDx=0;entryDy=0;exitX=1;exitY=0;exitDx=0;exitDy=0;" parent="1" source="HA1Z-ZeuSeUNC9l5udy9-126" target="HA1Z-ZeuSeUNC9l5udy9-140" edge="1">
          <mxGeometry relative="1" as="geometry">
            <mxPoint x="967" y="292" as="sourcePoint" />
            <mxPoint x="1080" y="184" as="targetPoint" />
          </mxGeometry>
        </mxCell>
        <mxCell id="HA1Z-ZeuSeUNC9l5udy9-145" value="Has" style="shape=rhombus;perimeter=rhombusPerimeter;whiteSpace=wrap;html=1;align=center;rotation=30;" parent="1" vertex="1">
          <mxGeometry x="364.57" y="465" width="89.53" height="60" as="geometry" />
        </mxCell>
        <mxCell id="HA1Z-ZeuSeUNC9l5udy9-146" value="" style="endArrow=none;html=1;rounded=0;exitX=1;exitY=1;exitDx=0;exitDy=0;entryX=0;entryY=0.5;entryDx=0;entryDy=0;" parent="1" source="HA1Z-ZeuSeUNC9l5udy9-38" target="HA1Z-ZeuSeUNC9l5udy9-145" edge="1">
          <mxGeometry relative="1" as="geometry">
            <mxPoint x="530" y="360" as="sourcePoint" />
            <mxPoint x="360" y="470" as="targetPoint" />
          </mxGeometry>
        </mxCell>
        <mxCell id="HA1Z-ZeuSeUNC9l5udy9-149" value="Shipping_Date" style="ellipse;whiteSpace=wrap;html=1;" parent="1" vertex="1">
          <mxGeometry x="870" y="50" width="100" height="40" as="geometry" />
        </mxCell>
        <mxCell id="HA1Z-ZeuSeUNC9l5udy9-150" value="" style="endArrow=none;html=1;rounded=0;entryX=0.767;entryY=0.939;entryDx=0;entryDy=0;entryPerimeter=0;exitX=0.093;exitY=-0.069;exitDx=0;exitDy=0;exitPerimeter=0;" parent="1" source="HA1Z-ZeuSeUNC9l5udy9-43" target="HA1Z-ZeuSeUNC9l5udy9-149" edge="1">
          <mxGeometry width="50" height="50" relative="1" as="geometry">
            <mxPoint x="1040" y="175.0000000000001" as="sourcePoint" />
            <mxPoint x="1058" y="290" as="targetPoint" />
          </mxGeometry>
        </mxCell>
        <mxCell id="HA1Z-ZeuSeUNC9l5udy9-151" value="Zipcode" style="ellipse;whiteSpace=wrap;html=1;" parent="1" vertex="1">
          <mxGeometry x="400" y="50" width="100" height="40" as="geometry" />
        </mxCell>
        <mxCell id="HA1Z-ZeuSeUNC9l5udy9-152" value="" style="endArrow=none;html=1;rounded=0;entryX=0;entryY=1;entryDx=0;entryDy=0;" parent="1" target="HA1Z-ZeuSeUNC9l5udy9-151" edge="1">
          <mxGeometry width="50" height="50" relative="1" as="geometry">
            <mxPoint x="300" y="170" as="sourcePoint" />
            <mxPoint x="320" y="120" as="targetPoint" />
          </mxGeometry>
        </mxCell>
        <mxCell id="HA1Z-ZeuSeUNC9l5udy9-155" value="" style="shape=link;html=1;rounded=0;exitX=1;exitY=0.5;exitDx=0;exitDy=0;" parent="1" source="HA1Z-ZeuSeUNC9l5udy9-92" edge="1">
          <mxGeometry relative="1" as="geometry">
            <mxPoint x="890" y="190" as="sourcePoint" />
            <mxPoint x="1050" y="190" as="targetPoint" />
          </mxGeometry>
        </mxCell>
        <mxCell id="HA1Z-ZeuSeUNC9l5udy9-156" value="M" style="resizable=0;html=1;whiteSpace=wrap;align=right;verticalAlign=bottom;" parent="HA1Z-ZeuSeUNC9l5udy9-155" connectable="0" vertex="1">
          <mxGeometry x="1" relative="1" as="geometry">
            <mxPoint x="-41" y="-10" as="offset" />
          </mxGeometry>
        </mxCell>
        <mxCell id="HA1Z-ZeuSeUNC9l5udy9-157" value="" style="shape=link;html=1;rounded=0;entryX=0;entryY=0.75;entryDx=0;entryDy=0;entryPerimeter=0;" parent="1" target="HA1Z-ZeuSeUNC9l5udy9-43" edge="1">
          <mxGeometry relative="1" as="geometry">
            <mxPoint x="870" y="250" as="sourcePoint" />
            <mxPoint x="1050" y="210" as="targetPoint" />
          </mxGeometry>
        </mxCell>
        <mxCell id="HA1Z-ZeuSeUNC9l5udy9-158" value="M" style="resizable=0;html=1;whiteSpace=wrap;align=right;verticalAlign=bottom;" parent="HA1Z-ZeuSeUNC9l5udy9-157" connectable="0" vertex="1">
          <mxGeometry x="1" relative="1" as="geometry">
            <mxPoint x="-50" y="10" as="offset" />
          </mxGeometry>
        </mxCell>
        <mxCell id="HA1Z-ZeuSeUNC9l5udy9-159" value="" style="shape=link;html=1;rounded=0;exitX=1;exitY=0.5;exitDx=0;exitDy=0;" parent="1" edge="1" source="HA1Z-ZeuSeUNC9l5udy9-140">
          <mxGeometry relative="1" as="geometry">
            <mxPoint x="950" y="280" as="sourcePoint" />
            <mxPoint x="1050" y="210" as="targetPoint" />
          </mxGeometry>
        </mxCell>
        <mxCell id="HA1Z-ZeuSeUNC9l5udy9-160" value="M" style="resizable=0;html=1;whiteSpace=wrap;align=right;verticalAlign=bottom;" parent="HA1Z-ZeuSeUNC9l5udy9-159" connectable="0" vertex="1">
          <mxGeometry x="1" relative="1" as="geometry">
            <mxPoint y="30" as="offset" />
          </mxGeometry>
        </mxCell>
        <mxCell id="HA1Z-ZeuSeUNC9l5udy9-161" value="" style="shape=link;html=1;rounded=0;exitX=0.5;exitY=1;exitDx=0;exitDy=0;entryX=0.467;entryY=0;entryDx=0;entryDy=0;entryPerimeter=0;" parent="1" source="HA1Z-ZeuSeUNC9l5udy9-97" target="HA1Z-ZeuSeUNC9l5udy9-68" edge="1">
          <mxGeometry relative="1" as="geometry">
            <mxPoint x="790" y="220" as="sourcePoint" />
            <mxPoint x="1080" y="220" as="targetPoint" />
          </mxGeometry>
        </mxCell>
        <mxCell id="HA1Z-ZeuSeUNC9l5udy9-162" value="M" style="resizable=0;html=1;whiteSpace=wrap;align=right;verticalAlign=bottom;" parent="HA1Z-ZeuSeUNC9l5udy9-161" connectable="0" vertex="1">
          <mxGeometry x="1" relative="1" as="geometry">
            <mxPoint x="-14" y="-10" as="offset" />
          </mxGeometry>
        </mxCell>
        <mxCell id="HA1Z-ZeuSeUNC9l5udy9-163" value="" style="shape=link;html=1;rounded=0;entryX=0.467;entryY=1;entryDx=0;entryDy=0;entryPerimeter=0;" parent="1" source="HA1Z-ZeuSeUNC9l5udy9-97" target="HA1Z-ZeuSeUNC9l5udy9-43" edge="1">
          <mxGeometry relative="1" as="geometry">
            <mxPoint x="730" y="380" as="sourcePoint" />
            <mxPoint x="890" y="380" as="targetPoint" />
          </mxGeometry>
        </mxCell>
        <mxCell id="HA1Z-ZeuSeUNC9l5udy9-164" value="1" style="resizable=0;html=1;whiteSpace=wrap;align=right;verticalAlign=bottom;" parent="HA1Z-ZeuSeUNC9l5udy9-163" connectable="0" vertex="1">
          <mxGeometry x="1" relative="1" as="geometry">
            <mxPoint x="-15" y="30" as="offset" />
          </mxGeometry>
        </mxCell>
        <mxCell id="HA1Z-ZeuSeUNC9l5udy9-165" value="" style="shape=link;html=1;rounded=0;exitX=1;exitY=0.5;exitDx=0;exitDy=0;entryX=0;entryY=0.5;entryDx=0;entryDy=0;" parent="1" source="HA1Z-ZeuSeUNC9l5udy9-102" target="HA1Z-ZeuSeUNC9l5udy9-68" edge="1">
          <mxGeometry relative="1" as="geometry">
            <mxPoint x="1130" y="450" as="sourcePoint" />
            <mxPoint x="1130" y="580" as="targetPoint" />
          </mxGeometry>
        </mxCell>
        <mxCell id="HA1Z-ZeuSeUNC9l5udy9-166" value="M" style="resizable=0;html=1;whiteSpace=wrap;align=right;verticalAlign=bottom;" parent="HA1Z-ZeuSeUNC9l5udy9-165" connectable="0" vertex="1">
          <mxGeometry x="1" relative="1" as="geometry">
            <mxPoint x="-21" y="-10" as="offset" />
          </mxGeometry>
        </mxCell>
        <mxCell id="HA1Z-ZeuSeUNC9l5udy9-169" value="" style="shape=link;html=1;rounded=0;exitX=1;exitY=0.5;exitDx=0;exitDy=0;entryX=0;entryY=0.5;entryDx=0;entryDy=0;" parent="1" source="HA1Z-ZeuSeUNC9l5udy9-87" target="HA1Z-ZeuSeUNC9l5udy9-27" edge="1">
          <mxGeometry relative="1" as="geometry">
            <mxPoint x="450" y="589.47" as="sourcePoint" />
            <mxPoint x="560" y="589.47" as="targetPoint" />
          </mxGeometry>
        </mxCell>
        <mxCell id="HA1Z-ZeuSeUNC9l5udy9-175" value="M" style="resizable=0;html=1;whiteSpace=wrap;align=right;verticalAlign=bottom;" parent="HA1Z-ZeuSeUNC9l5udy9-169" connectable="0" vertex="1">
          <mxGeometry x="1" relative="1" as="geometry">
            <mxPoint x="-251" y="-200" as="offset" />
          </mxGeometry>
        </mxCell>
        <mxCell id="HA1Z-ZeuSeUNC9l5udy9-176" value="N" style="resizable=0;html=1;whiteSpace=wrap;align=right;verticalAlign=bottom;" parent="HA1Z-ZeuSeUNC9l5udy9-169" connectable="0" vertex="1">
          <mxGeometry x="1" relative="1" as="geometry">
            <mxPoint x="-11" y="-200" as="offset" />
          </mxGeometry>
        </mxCell>
        <mxCell id="HA1Z-ZeuSeUNC9l5udy9-177" value="" style="shape=link;html=1;rounded=0;exitX=1;exitY=0.5;exitDx=0;exitDy=0;entryX=0;entryY=0;entryDx=0;entryDy=0;" parent="1" source="HA1Z-ZeuSeUNC9l5udy9-145" target="HA1Z-ZeuSeUNC9l5udy9-27" edge="1">
          <mxGeometry relative="1" as="geometry">
            <mxPoint x="489.47" y="475" as="sourcePoint" />
            <mxPoint x="489.47" y="605" as="targetPoint" />
          </mxGeometry>
        </mxCell>
        <mxCell id="HA1Z-ZeuSeUNC9l5udy9-178" value="M" style="resizable=0;html=1;whiteSpace=wrap;align=right;verticalAlign=bottom;" parent="HA1Z-ZeuSeUNC9l5udy9-177" connectable="0" vertex="1">
          <mxGeometry x="1" relative="1" as="geometry">
            <mxPoint x="-40" y="10" as="offset" />
          </mxGeometry>
        </mxCell>
        <mxCell id="HA1Z-ZeuSeUNC9l5udy9-185" value="M" style="resizable=0;html=1;whiteSpace=wrap;align=right;verticalAlign=bottom;" parent="HA1Z-ZeuSeUNC9l5udy9-177" connectable="0" vertex="1">
          <mxGeometry x="1" relative="1" as="geometry">
            <mxPoint y="-10" as="offset" />
          </mxGeometry>
        </mxCell>
        <mxCell id="HA1Z-ZeuSeUNC9l5udy9-181" value="" style="shape=link;html=1;rounded=0;exitX=0;exitY=0.5;exitDx=0;exitDy=0;entryX=1;entryY=0.5;entryDx=0;entryDy=0;" parent="1" source="HA1Z-ZeuSeUNC9l5udy9-137" target="HA1Z-ZeuSeUNC9l5udy9-38" edge="1">
          <mxGeometry relative="1" as="geometry">
            <mxPoint x="458" y="527" as="sourcePoint" />
            <mxPoint x="570" y="580" as="targetPoint" />
          </mxGeometry>
        </mxCell>
        <mxCell id="HA1Z-ZeuSeUNC9l5udy9-183" value="Payment_Type" style="ellipse;whiteSpace=wrap;html=1;" parent="1" vertex="1">
          <mxGeometry x="860" y="110" width="100" height="40" as="geometry" />
        </mxCell>
        <mxCell id="HA1Z-ZeuSeUNC9l5udy9-184" value="" style="endArrow=none;html=1;rounded=0;" parent="1" source="HA1Z-ZeuSeUNC9l5udy9-183" target="HA1Z-ZeuSeUNC9l5udy9-43" edge="1">
          <mxGeometry width="50" height="50" relative="1" as="geometry">
            <mxPoint x="165" y="296" as="sourcePoint" />
            <mxPoint x="208" y="220" as="targetPoint" />
          </mxGeometry>
        </mxCell>
        <mxCell id="vcbOgVRJpu7MmXTt0Xgo-2" value="Order_Zipcode" style="ellipse;whiteSpace=wrap;html=1;" parent="1" vertex="1">
          <mxGeometry x="1340" y="165" width="120" height="40" as="geometry" />
        </mxCell>
        <mxCell id="vcbOgVRJpu7MmXTt0Xgo-3" value="" style="endArrow=none;html=1;rounded=0;entryX=1;entryY=0.5;entryDx=0;entryDy=0;exitX=0;exitY=0.5;exitDx=0;exitDy=0;" parent="1" source="vcbOgVRJpu7MmXTt0Xgo-2" target="HA1Z-ZeuSeUNC9l5udy9-43" edge="1">
          <mxGeometry width="50" height="50" relative="1" as="geometry">
            <mxPoint x="1343" y="150" as="sourcePoint" />
            <mxPoint x="1211" y="195" as="targetPoint" />
          </mxGeometry>
        </mxCell>
        <mxCell id="sq4eKTskskFxYRxszNUt-1" value="Order Item Product Price" style="ellipse;whiteSpace=wrap;html=1;" parent="1" vertex="1">
          <mxGeometry x="1270" y="430" width="160" height="40" as="geometry" />
        </mxCell>
        <mxCell id="sq4eKTskskFxYRxszNUt-2" value="" style="endArrow=none;html=1;rounded=0;exitX=0.864;exitY=0.01;exitDx=0;exitDy=0;exitPerimeter=0;entryX=0;entryY=1;entryDx=0;entryDy=0;" parent="1" source="HA1Z-ZeuSeUNC9l5udy9-68" target="sq4eKTskskFxYRxszNUt-1" edge="1">
          <mxGeometry width="50" height="50" relative="1" as="geometry">
            <mxPoint x="1200" y="580" as="sourcePoint" />
            <mxPoint x="1280" y="480" as="targetPoint" />
          </mxGeometry>
        </mxCell>
      </root>
    </mxGraphModel>
  </diagram>
</mxfile>
